<svg width="512" height="807" viewBox="0 0 512 807" fill="none" xmlns="http://www.w3.org/2000/svg">
<path d="M219.859 805.929L235.853 801.471C251.238 797.183 260.224 781.271 255.925 765.929L73.0555 113.351C70.475 104.142 64.3313 96.3319 55.9761 91.6395C47.6208 86.9471 37.7384 85.7568 28.503 88.3305L26.4374 88.9055C7.20456 94.2641 -4.03062 114.155 1.34282 133.334L184.217 785.912C188.516 801.253 204.473 810.215 219.859 805.929Z" fill="white"/>
<path d="M509.087 242.498C474.91 225.457 443.294 203.706 415.161 177.88C412.796 175.715 411.871 172.393 412.778 169.317C426.717 116.583 437.069 62.9652 443.763 8.83187C444.822 -0.172269 439.967 -2.82054 434.847 3.35877C334.389 123.502 160.574 -18.6219 57.1143 90.5753C58.3564 92.9009 59.3335 95.3586 60.0274 97.9022L129.942 348.253C233.578 240.379 406.775 381.621 507.056 261.742C512.176 255.563 513.147 244.264 509.087 242.498Z" fill="#ED6060"/>
</svg>
